PathFileType	4	(x/y/z)	S09_PSF_T14
DataRate	CameraRate	NumFrames	NumMarkers	Units	OrigDataRate	OrigDataStartFrame	OrigNumFrames
240	240	8	51	mm	240	278	444
Frame#	Time	Sternum			R.Acromium			L.Acromium			Top.Head			R.ASIS			L.ASIS			R.PSIS			L.PSIS			R.Great.Tro			L.Great.Tro			R.Iliac.Crest			L.Iliac.Crest			V.Sacral			R.Thigh.Upper.Post			R.Thigh.Lower.Ant			R.Thigh.Lower.Post			R.Thigh.Upper.Ant			R.Knee.Lat			R.Knee.Med			R.Shank.Upper.Post			R.Shank.Lower.Ant			R.Shank.Lower.Post			R.Shank.Upper.Ant			R.Ankle.Lat			R.Ankle.Med			R.Heel.Upper			R.Heel.Med			R.Heel.Lat			R.Toe.Lat			R.Toe.Med			R.Toe.Tip			L.Thigh.Upper.Post			L.Thigh.Lower.Ant			L.Thigh.Lower.Post			L.Thigh.Upper.Ant			L.Knee.Lat			L.Knee.Med			L.Shank.Upper.Post			L.Shank.Lower.Ant			L.Shank.Lower.Post			L.Shank.Upper.Ant			L.Ankle.Lat			L.Ankle.Med			L.Heel.Upper			L.Heel.Med			L.Heel.Lat			L.Toe.Lat			L.Toe.Med			L.Toe.Tip			Cervical.Spine			Back			
		X1	Y1	Z1	X2	Y2	Z2	X3	Y3	Z3	X4	Y4	Z4	X5	Y5	Z5	X6	Y6	Z6	X7	Y7	Z7	X8	Y8	Z8	X9	Y9	Z9	X10	Y10	Z10	X11	Y11	Z11	X12	Y12	Z12	X13	Y13	Z13	X14	Y14	Z14	X15	Y15	Z15	X16	Y16	Z16	X17	Y17	Z17	X18	Y18	Z18	X19	Y19	Z19	X20	Y20	Z20	X21	Y21	Z21	X22	Y22	Z22	X23	Y23	Z23	X24	Y24	Z24	X25	Y25	Z25	X26	Y26	Z26	X27	Y27	Z27	X28	Y28	Z28	X29	Y29	Z29	X30	Y30	Z30	X31	Y31	Z31	X32	Y32	Z32	X33	Y33	Z33	X34	Y34	Z34	X35	Y35	Z35	X36	Y36	Z36	X37	Y37	Z37	X38	Y38	Z38	X39	Y39	Z39	X40	Y40	Z40	X41	Y41	Z41	X42	Y42	Z42	X43	Y43	Z43	X44	Y44	Z44	X45	Y45	Z45	X46	Y46	Z46	X47	Y47	Z47	X48	Y48	Z48	X49	Y49	Z49	X50	Y50	Z50	X51	Y51	Z51	

278	1.1542	-82.795	1163.4	358.22	-206.76	1416.5	509.98	-230.46	1407.9	196.03	-229.51	1718.8	342.63	-140.74	1000.4	480.02	-127.71	1005.1	234.34	-357.7	1027.8	387.51	-346.59	1021.1	299.3	-239.47	919.07	545.78	-186.98	911.89	162.3	-228.33	1082.7	516.92	-239.11	1093.2	193.98	-371.35	988.88	339.38	-304.01	678.73	505.45	-256.11	564	468.53	-329.64	592.64	474.03	-238.68	648.74	498.89	-303.77	496.51	455.33	-303.31	493.41	333.29	-439.7	363.4	453.93	-402.49	281.12	439.73	-473.4	295.66	440.2	-375.34	348.82	455.02	-527.28	115.49	415.22	-502.97	129.89	333.48	-599.83	106.29	365.14	-595.42	72.103	337.66	-601.76	77.292	402.24	-446.88	40.824	453.81	-397.77	39.139	347.91	-348.27	45.496	394.85	-164.34	646.08	207.59	-54.624	582.6	212.14	-120.03	567.78	229.08	-95.345	657.93	185.43	-40.481	508.82	222.81	-34.322	528.34	358.99	-34.956	367.85	215.08	59.108	310.32	225.89	-4.3033	297.24	221.85	27.667	381.03	219.99	103.17	119.31	247.12	122.59	131.45	337.38	64.219	55.863	304.98	86.864	45.724	338.54	79.164	28.9	279.19	227.38	106.31	212.82	257.36	143.25	316.85	287.98	178.49	253.53	-294.29	1466.5	368.31	-348.07	1197.7	362.92
279	1.1583	-77.105	1162.9	357.68	-201.28	1415.8	509.5	-224.89	1407.4	195.53	-224.24	1718.3	342.35	-135.14	999.65	479.72	-121.77	1004.8	234.03	-351.97	1027.4	387.02	-340.72	1020.6	298.81	-234.13	918.31	545.31	-180.74	911.43	162.06	-222.64	1082	516.55	-233.34	1092.8	193.61	-365.63	988.46	338.85	-298.62	677.95	504.91	-250.69	563.21	468.06	-324.23	591.85	473.49	-233.29	647.96	498.41	-298.48	495.67	454.97	-298.02	492.65	332.88	-435.63	363.88	453.69	-399.41	281.2	439.43	-470.12	296.54	440.12	-371.5	348.59	454.67	-526.06	116.97	415.16	-501.44	131.02	333.42	-598.69	108.47	365.06	-594.66	74.275	337.51	-600.96	79.408	402.11	-446.63	41.035	453.74	-397.4	39.131	347.97	-347.99	45.268	394.94	-157.85	645.64	207.72	-48.118	582.32	212.89	-113.61	567.41	229.52	-88.82	657.56	185.91	-34.166	508.38	223.55	-27.614	528.53	359.47	-30.043	367.34	215.79	63.338	308.78	226.98	-0.18517	296.38	222.65	32.689	379.83	220.98	105.21	117.76	248.13	124.39	129.27	338.56	65.384	55.284	305.63	87.854	44.635	339.17	79.962	28.211	279.77	229.1	103.83	214.06	259.23	140.03	318.32	290.24	175.28	255.13	-288.87	1465.9	367.83	-342.41	1197	362.47
280	1.1625	-71.382	1162.4	357.11	-195.81	1415.2	509	-219.33	1406.9	195.02	-218.95	1717.7	342.07	-129.48	998.92	479.4	-115.77	1004.4	233.7	-346.2	1026.9	386.52	-334.79	1020.1	298.3	-228.74	917.58	544.82	-174.46	910.98	161.82	-216.91	1081.3	516.16	-227.54	1092.3	193.21	-359.85	988.05	338.3	-293.09	677.17	504.37	-245.11	562.42	467.59	-318.67	591.05	472.95	-227.75	647.19	497.92	-293.04	494.82	454.63	-292.58	491.9	332.48	-431.43	364.4	453.48	-396.2	281.31	439.17	-466.71	297.48	440.07	-367.54	348.38	454.34	-524.74	118.54	415.12	-499.8	132.23	333.38	-597.45	110.8	364.97	-593.8	76.605	337.36	-600.07	81.67	401.97	-446.36	41.27	453.66	-397.01	39.121	348.02	-347.7	45.048	395.04	-151.42	645.22	207.86	-41.699	582	213.62	-107.28	567.03	229.95	-82.358	657.17	186.38	-27.944	507.92	224.26	-21.001	528.66	359.92	-25.172	366.83	216.46	67.533	307.26	228.03	3.9056	295.54	223.41	37.662	378.65	221.95	107.22	116.28	249.08	126.17	127.12	339.68	66.483	54.843	306.21	88.764	43.64	339.72	80.643	27.656	280.28	230.73	101.33	215.23	261.06	136.73	319.71	292.47	171.98	256.65	-283.46	1465.3	367.34	-336.72	1196.4	362.01
281	1.1667	-65.627	1162	356.53	-190.36	1414.6	508.49	-213.77	1406.5	194.51	-213.65	1717.2	341.78	-123.77	998.24	479.06	-109.73	1004.1	233.35	-340.38	1026.4	385.99	-328.81	1019.6	297.76	-223.28	916.87	544.33	-168.13	910.53	161.57	-211.13	1080.7	515.75	-221.7	1091.9	192.79	-354.02	987.66	337.74	-287.44	676.39	503.81	-239.37	561.64	467.13	-312.95	590.24	472.41	-222.07	646.44	497.42	-287.43	493.97	454.33	-286.99	491.15	332.11	-427.1	364.96	453.3	-392.88	281.45	438.95	-463.17	298.47	440.05	-363.46	348.2	454.05	-523.32	120.2	415.08	-498.03	133.52	333.35	-596.09	113.28	364.89	-592.85	79.099	337.18	-599.1	84.084	401.82	-446.07	41.529	453.58	-396.59	39.109	348.08	-347.42	44.837	395.13	-145.07	644.81	208.01	-35.382	581.65	214.32	-101.04	566.65	230.37	-75.972	656.77	186.84	-21.827	507.44	224.92	-14.51	528.71	360.34	-20.336	366.33	217.1	71.708	305.79	229.04	7.9854	294.72	224.13	42.593	377.5	222.87	109.23	114.86	249.96	127.96	125	340.73	67.549	54.545	306.74	89.626	42.748	340.21	81.241	27.24	280.72	232.29	98.814	216.33	262.88	133.38	321.04	294.71	168.61	258.09	-278.07	1464.8	366.84	-330.99	1195.7	361.53
282	1.1708	-59.839	1161.7	355.92	-184.92	1414	507.98	-208.21	1406	193.97	-208.35	1716.8	341.48	-118	997.6	478.7	-103.64	1003.8	232.99	-334.51	1026	385.45	-322.78	1019.1	297.2	-217.76	916.2	543.83	-161.76	910.1	161.3	-205.32	1080.1	515.33	-215.81	1091.5	192.33	-348.13	987.27	337.16	-281.64	675.62	503.26	-233.47	560.88	466.69	-307.07	589.43	471.88	-216.26	645.7	496.94	-281.65	493.13	454.06	-281.25	490.4	331.79	-422.63	365.57	453.15	-389.42	281.65	438.77	-459.51	299.53	440.07	-359.26	348.05	453.79	-521.8	121.95	415.06	-496.14	134.9	333.34	-594.6	115.92	364.8	-591.78	81.764	337	-598.03	86.655	401.66	-445.75	41.815	453.49	-396.15	39.093	348.15	-347.13	44.633	395.22	-138.8	644.42	208.16	-29.179	581.28	214.96	-94.906	566.26	230.75	-69.675	656.37	187.28	-15.827	506.95	225.52	-8.1688	528.67	360.72	-15.528	365.83	217.69	75.876	304.36	230	12.067	293.93	224.8	47.487	376.38	223.76	111.26	113.52	250.77	129.77	122.93	341.72	68.608	54.39	307.22	90.463	41.964	340.63	81.786	26.963	281.1	233.82	96.296	217.37	264.71	129.97	322.29	296.98	165.17	259.44	-272.7	1464.2	366.33	-325.24	1195.1	361.04
283	1.175	-54.02	1161.4	355.31	-179.5	1413.4	507.46	-202.65	1405.6	193.43	-203.04	1716.3	341.18	-112.17	997.02	478.33	-97.504	1003.5	232.63	-328.6	1025.5	384.88	-316.69	1018.7	296.61	-212.17	915.56	543.32	-155.34	909.68	161.02	-199.49	1079.5	514.89	-209.89	1091.1	191.85	-342.19	986.9	336.56	-275.71	674.85	502.72	-227.4	560.12	466.28	-301.03	588.61	471.36	-210.29	644.98	496.47	-275.7	492.28	453.85	-275.34	489.65	331.51	-418.01	366.22	453.05	-385.83	281.89	438.65	-455.7	300.65	440.12	-354.92	347.94	453.58	-520.17	123.79	415.05	-494.11	136.36	333.36	-592.97	118.72	364.7	-590.59	84.604	336.8	-596.86	89.388	401.48	-445.41	42.13	453.39	-395.68	39.074	348.22	-346.85	44.437	395.3	-132.63	644.05	208.29	-23.099	580.87	215.54	-88.891	565.88	231.1	-63.472	655.97	187.69	-9.9491	506.45	226.05	-1.9975	528.55	361.05	-10.743	365.34	218.23	80.044	303	230.91	16.16	293.16	225.41	52.348	375.3	224.58	113.32	112.26	251.53	131.62	120.94	342.65	69.676	54.372	307.65	91.289	41.293	341	82.299	26.822	281.41	235.33	93.777	218.36	266.55	126.53	323.48	299.29	161.66	260.72	-267.33	1463.7	365.8	-319.46	1194.5	360.52
284	1.1792	-48.169	1161.1	354.68	-174.1	1412.9	506.93	-197.1	1405.2	192.87	-197.72	1715.9	340.87	-106.29	996.5	477.93	-91.33	1003.2	232.25	-322.64	1025.1	384.28	-310.56	1018.3	296	-206.51	914.96	542.8	-148.87	909.29	160.71	-193.62	1079	514.44	-203.92	1090.7	191.34	-336.2	986.55	335.94	-269.63	674.09	502.18	-221.17	559.38	465.91	-294.84	587.79	470.86	-204.19	644.29	496.02	-269.58	491.44	453.7	-269.26	488.89	331.3	-413.25	366.93	453	-382.1	282.18	438.58	-451.75	301.84	440.2	-350.45	347.86	453.43	-518.41	125.73	415.06	-491.94	137.92	333.4	-591.18	121.69	364.6	-589.26	87.624	336.58	-595.56	92.288	401.28	-445.04	42.477	453.28	-395.19	39.053	348.29	-346.58	44.248	395.38	-126.55	643.7	208.4	-17.144	580.44	216.05	-82.999	565.5	231.39	-57.37	655.56	188.06	-4.1939	505.94	226.51	3.9866	528.35	361.34	-5.9776	364.87	218.72	84.218	301.71	231.75	20.269	292.43	225.97	57.181	374.27	225.36	115.43	111.08	252.21	133.52	119.02	343.51	70.763	54.485	308.03	92.115	40.736	341.31	82.799	26.807	281.67	236.83	91.263	219.29	268.42	123.07	324.61	301.65	158.1	261.92	-261.97	1463.2	365.25	-313.64	1193.9	359.99
285	1.1833	-42.289	1160.9	354.05	-168.72	1412.5	506.39	-191.54	1404.9	192.3	-192.4	1715.6	340.55	-100.36	996.03	477.52	-85.124	1003	231.87	-316.65	1024.6	383.67	-304.4	1017.9	295.35	-200.78	914.39	542.29	-142.37	908.93	160.38	-187.73	1078.5	513.96	-197.9	1090.3	190.8	-330.16	986.2	335.3	-263.42	673.35	501.66	-214.77	558.65	465.6	-288.48	586.97	470.39	-197.93	643.62	495.61	-263.29	490.61	453.61	-262.99	488.13	331.15	-408.33	367.69	453	-378.24	282.52	438.57	-447.65	303.08	440.31	-345.85	347.83	453.34	-516.53	127.76	415.1	-489.62	139.58	333.47	-589.23	124.82	364.5	-587.79	90.827	336.35	-594.14	95.357	401.07	-444.65	42.858	453.17	-394.66	39.028	348.37	-346.31	44.064	395.46	-120.58	643.39	208.47	-11.315	580	216.48	-77.229	565.13	231.63	-51.369	655.16	188.37	1.4419	505.43	226.89	9.7727	528.06	361.58	-1.2311	364.41	219.16	88.398	300.49	232.53	24.394	291.74	226.48	61.986	373.29	226.06	117.57	109.99	252.83	135.46	117.2	344.29	71.871	54.717	308.35	92.941	40.29	341.58	83.297	26.907	281.88	238.34	88.755	220.17	270.3	119.59	325.67	304.06	154.49	263.06	-256.6	1462.7	364.69	-307.81	1193.3	359.43
